<svg width="19" height="19" viewBox="0 0 19 19" fill="none" xmlns="http://www.w3.org/2000/svg">
<path d="M9.5 19C8.18383 19 6.94783 18.7503 5.792 18.251C4.63617 17.7517 3.62883 17.0736 2.77 16.2167C1.911 15.3599 1.23458 14.3518 0.74075 13.1925C0.246917 12.0333 0 10.7935 0 9.473C0 8.15333 0.246917 6.91825 0.74075 5.76775C1.23458 4.61708 1.911 3.61333 2.77 2.7565C3.62883 1.89967 4.63617 1.226 5.792 0.7355C6.94783 0.245166 8.18383 0 9.5 0C10.8197 0 12.0565 0.245166 13.2105 0.7355C14.3647 1.226 15.3712 1.89967 16.23 2.7565C17.089 3.61333 17.7654 4.61708 18.2593 5.76775C18.7531 6.91825 19 8.15333 19 9.473C19 10.7935 18.7531 12.0333 18.2593 13.1925C17.7654 14.3518 17.089 15.3599 16.23 16.2167C15.3712 17.0736 14.3647 17.7517 13.2105 18.251C12.0565 18.7503 10.8197 19 9.5 19ZM9.5 17.7698C10.0847 17.0972 10.5688 16.3847 10.9525 15.632C11.3363 14.8795 11.6503 14.0158 11.8943 13.041H7.116C7.36167 14.0142 7.67533 14.8811 8.057 15.6417C8.43867 16.4024 8.91967 17.1117 9.5 17.7698ZM7.79675 17.5422C7.35708 16.9539 6.96608 16.2739 6.62375 15.5022C6.28142 14.7306 6.01325 13.9102 5.81925 13.041H2.0345C2.63717 14.2487 3.40925 15.2198 4.35075 15.9545C5.29208 16.6892 6.44075 17.2184 7.79675 17.5422ZM11.2197 17.532C12.4656 17.2577 13.5891 16.7301 14.5903 15.9492C15.5916 15.1686 16.3833 14.1992 16.9655 13.041H13.191C12.9582 13.9142 12.6733 14.7343 12.3365 15.5015C11.9997 16.2688 11.6274 16.9457 11.2197 17.532ZM1.5815 11.7848H5.5795C5.51667 11.3564 5.47458 10.9548 5.45325 10.5798C5.43192 10.2048 5.42125 9.83583 5.42125 9.473C5.42125 9.08283 5.43358 8.70817 5.45825 8.349C5.48308 7.98983 5.52692 7.6085 5.58975 7.205H1.5815C1.46733 7.5765 1.38458 7.94383 1.33325 8.307C1.28208 8.67033 1.2565 9.059 1.2565 9.473C1.2565 9.8915 1.28208 10.2875 1.33325 10.661C1.38458 11.0345 1.46733 11.4091 1.5815 11.7848ZM6.8565 11.7848H12.1538C12.2234 11.3249 12.2707 10.9186 12.2955 10.5658C12.3203 10.2129 12.3328 9.84867 12.3328 9.473C12.3328 9.1085 12.3203 8.75433 12.2955 8.4105C12.2707 8.06667 12.2234 7.66483 12.1538 7.205H6.8565C6.78683 7.66483 6.73958 8.06667 6.71475 8.4105C6.68992 8.75433 6.6775 9.1085 6.6775 9.473C6.6775 9.84867 6.68992 10.2129 6.71475 10.5658C6.73958 10.9186 6.78683 11.3249 6.8565 11.7848ZM13.4102 11.7848H17.4185C17.5327 11.4091 17.6154 11.0345 17.6667 10.661C17.7179 10.2875 17.7435 9.8915 17.7435 9.473C17.7435 9.059 17.7179 8.67033 17.6667 8.307C17.6154 7.94383 17.5327 7.5765 17.4185 7.205H13.427C13.4855 7.6965 13.5272 8.11733 13.552 8.4675C13.5767 8.81783 13.589 9.153 13.589 9.473C13.589 9.84267 13.5749 10.2071 13.5468 10.5662C13.5186 10.9256 13.4731 11.3318 13.4102 11.7848ZM13.1807 5.94875H16.9655C16.3948 4.74608 15.6169 3.75975 14.6318 2.98975C13.6464 2.21958 12.5036 1.70567 11.2032 1.448C11.6429 2.06167 12.029 2.745 12.3615 3.498C12.694 4.251 12.9671 5.06792 13.1807 5.94875ZM7.116 5.94875H11.911C11.6857 5.04275 11.3688 4.19417 10.9605 3.403C10.5522 2.61167 10.0653 1.89425 9.5 1.25075C8.95933 1.80625 8.50067 2.4565 8.124 3.2015C7.74733 3.94667 7.41133 4.86242 7.116 5.94875ZM2.0345 5.94875H5.8295C6.0295 5.08842 6.293 4.28458 6.62 3.53725C6.94683 2.78975 7.33358 2.09675 7.78025 1.45825C6.47758 1.72025 5.34033 2.23233 4.3685 2.9945C3.39683 3.75667 2.61883 4.74142 2.0345 5.94875Z" fill="#1FEFEE"/>
</svg>
