<svg width="24" height="24" viewBox="0 0 24 24" fill="none" xmlns="http://www.w3.org/2000/svg">
  <path d="M12 24C18.6274 24 24 18.6274 24 12C24 5.37258 18.6274 0 12 0C5.37258 0 0 5.37258 0 12C0 18.6274 5.37258 24 12 24Z" fill="#E84142"/>
  <path d="M16.1622 15.0606C16.7301 14.1219 17.6323 14.1219 18.2002 15.0606L20.4063 18.7879C20.9742 19.7266 20.5231 20.4848 19.4551 20.4848H14.8315C13.7635 20.4848 13.3124 19.7266 13.8803 18.7879L16.1622 15.0606ZM11.3522 6.06061C11.9201 5.12189 12.8223 5.12189 13.3902 6.06061L13.9581 7.00001L15.1019 8.87879C15.5531 9.66667 15.5531 10.6061 15.1019 11.3939L9.61616 20.4848H5.44453C4.37654 20.4848 3.92543 19.7273 4.49333 18.7879L11.3522 6.06061Z" fill="white"/>
</svg>

