<svg width="32" height="32" viewBox="0 0 32 32" fill="none" xmlns="http://www.w3.org/2000/svg">
    <g id="icons/billing">
        <path id="Vector"
            d="M29 8.41033V23.5897C29 24.2632 28.7605 24.8333 28.2816 25.3C27.8026 25.7667 27.2175 26 26.5262 26H5.47376C4.78248 26 4.19737 25.7667 3.71842 25.3C3.23947 24.8333 3 24.2632 3 23.5897V8.41033C3 7.73678 3.23947 7.16667 3.71842 6.7C4.19737 6.23333 4.78248 6 5.47376 6H26.5262C27.2175 6 27.8026 6.23333 28.2816 6.7C28.7605 7.16667 29 7.73678 29 8.41033ZM5.05263 11.2053H26.9474V8.41033C26.9474 8.30767 26.9035 8.21367 26.8157 8.12833C26.7281 8.04278 26.6316 8 26.5262 8H5.47376C5.36839 8 5.27192 8.04278 5.18434 8.12833C5.09654 8.21367 5.05263 8.30767 5.05263 8.41033V11.2053ZM5.05263 15.4613V23.5897C5.05263 23.6923 5.09654 23.7863 5.18434 23.8717C5.27192 23.9572 5.36839 24 5.47376 24H26.5262C26.6316 24 26.7281 23.9572 26.8157 23.8717C26.9035 23.7863 26.9474 23.6923 26.9474 23.5897V15.4613H5.05263Z"
            fill="white" />
    </g>
</svg>
    