<svg width="16" height="16" viewBox="0 0 16 16" fill="none" xmlns="http://www.w3.org/2000/svg">
    <g clip-path="url(#clip0_6_23287)">
    <path d="M13.8414 9.75557C13.8414 13.0162 11.0861 15.2844 7.8185 15.2844C4.55093 15.2844 1.73996 13.2199 2.21467 9.99386C2.44056 8.45871 4.0062 7.22503 3.16099 4.15803C3.77728 3.92801 5.23559 5.07813 5.85029 5.92156C6.15764 5.38483 5.23406 2.27286 3.69732 0.739306C6.29446 0.545807 8.92705 1.37306 11.1871 3.62865C12.9358 5.32434 13.8414 8.17257 13.8414 9.75557Z" fill="#845EEE"/>
    <path d="M7.89817 13.0968C8.95383 13.1165 10.0406 12.4873 10.3571 10.8557C10.4745 10.2502 10.4413 9.16567 9.66252 8.19972C9.17173 7.59093 8.58067 7.2891 7.91215 7.06568C8.03559 8.26281 7.61322 9.28297 7.34464 9.71636C6.95212 9.56821 6.74717 9.3683 6.58473 9.01039C5.76842 9.56126 5.53198 10.4187 5.60401 11.0242C5.75362 12.2817 6.61319 13.0728 7.89817 13.0968Z" fill="#DED9F7"/>
    </g>
    <defs>
    <clipPath id="clip0_6_23287">
    <rect width="16" height="16" fill="white" transform="translate(0.00390625 -0.00195312)"/>
    </clipPath>
    </defs>
</svg>