<svg width="14" height="16" viewBox="0 0 14 16" fill="none" xmlns="http://www.w3.org/2000/svg">
    <path fill-rule="evenodd" clip-rule="evenodd"
        d="M1.75 0.5C0.7835 0.5 0 1.2835 0 2.25V9.75C0 10.7165 0.7835 11.5 1.75 11.5H2.75H3.5V10H2.75H1.75C1.61193 10 1.5 9.88807 1.5 9.75V2.25C1.5 2.11193 1.61193 2 1.75 2H7.25C7.38807 2 7.5 2.11193 7.5 2.25V3H9V2.25C9 1.2835 8.2165 0.5 7.25 0.5H1.75ZM6.75 4.5C5.7835 4.5 5 5.2835 5 6.25V13.75C5 14.7165 5.7835 15.5 6.75 15.5H12.25C13.2165 15.5 14 14.7165 14 13.75V6.25C14 5.2835 13.2165 4.5 12.25 4.5H6.75ZM6.5 6.25C6.5 6.11193 6.61193 6 6.75 6H12.25C12.3881 6 12.5 6.11193 12.5 6.25V13.75C12.5 13.8881 12.3881 14 12.25 14H6.75C6.61193 14 6.5 13.8881 6.5 13.75V6.25Z"
        fill="white" />
</svg>