<svg width="12" height="12" viewBox="0 0 12 12" fill="none" xmlns="http://www.w3.org/2000/svg">
<path d="M1.15563 11.9478C0.832756 11.9478 0.559433 11.8345 0.33566 11.608C0.111887 11.3816 0 11.1049 0 10.778V2.11747C0 1.7906 0.111887 1.51393 0.33566 1.28746C0.559433 1.06099 0.832756 0.947754 1.15563 0.947754H9.7132C10.0361 0.947754 10.3094 1.06099 10.5332 1.28746C10.7569 1.51393 10.8688 1.7906 10.8688 2.11747V3.46142H12V4.43184H10.8688V5.96246H12V6.93305H10.8688V8.46367H12V9.43409H10.8688V10.778C10.8688 11.1049 10.7569 11.3816 10.5332 11.608C10.3094 11.8345 10.0361 11.9478 9.7132 11.9478H1.15563ZM1.15563 10.9772H9.7132C9.76232 10.9772 9.8074 10.9564 9.84842 10.9149C9.88945 10.8735 9.90996 10.8279 9.90996 10.778V2.11747C9.90996 2.06765 9.88945 2.02203 9.84842 1.98062C9.8074 1.9391 9.76232 1.91834 9.7132 1.91834H1.15563C1.10651 1.91834 1.06143 1.9391 1.02041 1.98062C0.979488 2.02203 0.959028 2.06765 0.959028 2.11747V10.778C0.959028 10.8279 0.979488 10.8735 1.02041 10.9149C1.06143 10.9564 1.10651 10.9772 1.15563 10.9772ZM2.48356 9.43409H5.37296V7.15709H2.48356V9.43409ZM6.13522 5.09136H8.38526V3.46142H6.13522V5.09136ZM2.48356 6.38547H5.37296V3.46142H2.48356V6.38547ZM6.13522 9.43409H8.38526V5.86297H6.13522V9.43409Z" fill="#1FEFEE"/>
</svg>
