
<svg width="16" height="16" viewBox="0 0 16 16" fill="none" xmlns="http://www.w3.org/2000/svg">
    <path d="M2 4H14" stroke="#EA3434" stroke-opacity="0.6" stroke-width="1.5"
        stroke-linecap="round" stroke-linejoin="round" />
    <path
        d="M5.33333 4.00065V2.66732C5.33333 2.3137 5.47381 1.97456 5.72386 1.72451C5.97391 1.47446 6.31304 1.33398 6.66667 1.33398H9.33333C9.68696 1.33398 10.0261 1.47446 10.2761 1.72451C10.5262 1.97456 10.6667 2.3137 10.6667 2.66732V4.00065M3 6.5L3.66667 13.334C3.66667 13.6876 3.81662 14.0267 4.06667 14.2768C4.31672 14.5268 4.64638 14.6673 5 14.6673H11C11.3536 14.6673 11.6833 14.5268 11.9333 14.2768C12.1834 14.0267 12.3333 13.6876 12.3333 13.334L13 6.5"
        stroke="#EA3434" stroke-opacity="0.6" stroke-width="1.5" stroke-linecap="round"
        stroke-linejoin="round" />
    <path d="M6.66406 6.66602V11.9993" stroke="#EA3434" stroke-opacity="0.6" stroke-width="1.5"
        stroke-linecap="round" stroke-linejoin="round" />
    <path d="M9.33594 6.66602V11.9993" stroke="#EA3434" stroke-opacity="0.6" stroke-width="1.5"
        stroke-linecap="round" stroke-linejoin="round" />
</svg>
    