<svg width="13" height="13" viewBox="0 0 13 13" fill="none" xmlns="http://www.w3.org/2000/svg">
<path d="M7.44025 11.1579C7.61308 11.1579 7.76037 11.0989 7.88213 10.9809C8.0039 10.8629 8.06478 10.7201 8.06478 10.5526C8.06478 10.3851 8.0039 10.2423 7.88213 10.1243C7.76037 10.0064 7.61308 9.9474 7.44025 9.9474C7.26743 9.9474 7.12013 10.0064 6.99837 10.1243C6.87672 10.2423 6.8159 10.3851 6.8159 10.5526C6.8159 10.7201 6.87672 10.8629 6.99837 10.9809C7.12013 11.0989 7.26743 11.1579 7.44025 11.1579ZM9.53072 11.1579C9.70355 11.1579 9.85084 11.0989 9.97261 10.9809C10.0944 10.8629 10.1553 10.7201 10.1553 10.5526C10.1553 10.3851 10.0944 10.2423 9.97261 10.1243C9.85084 10.0064 9.70355 9.9474 9.53072 9.9474C9.3579 9.9474 9.21061 10.0064 9.08884 10.1243C8.96719 10.2423 8.90637 10.3851 8.90637 10.5526C8.90637 10.7201 8.96719 10.8629 9.08884 10.9809C9.21061 11.0989 9.3579 11.1579 9.53072 11.1579ZM0.0556641 7.35526V1.23688C0.0556641 0.891241 0.179193 0.598684 0.426252 0.359211C0.673311 0.119737 0.975135 0 1.33172 0H10.7796C11.1362 0 11.438 0.119737 11.6851 0.359211C11.9321 0.598684 12.0557 0.891241 12.0557 1.23688V7.35526H10.9968V1.23688C10.9968 1.1842 10.9742 1.13596 10.9289 1.09217C10.8837 1.04827 10.834 1.02632 10.7796 1.02632H1.33172C1.27737 1.02632 1.22761 1.04827 1.18243 1.09217C1.13713 1.13596 1.11449 1.1842 1.11449 1.23688V7.35526H0.0556641ZM1.11449 8.38158V11.7631C1.11449 11.8158 1.13713 11.864 1.18243 11.9078C1.22761 11.9517 1.27737 11.9737 1.33172 11.9737H10.7796C10.834 11.9737 10.8837 11.9517 10.9289 11.9078C10.9742 11.864 10.9968 11.8158 10.9968 11.7631V8.38158H1.11449ZM1.33172 13C0.975135 13 0.673311 12.8803 0.426252 12.6408C0.179193 12.4013 0.0556641 12.1088 0.0556641 11.7631V7.35526H12.0557V11.7631C12.0557 12.1088 11.9321 12.4013 11.6851 12.6408C11.438 12.8803 11.1362 13 10.7796 13H1.33172Z" fill="#1FEFEE"/>
</svg>
