
<svg width="20" height="21" viewBox="0 0 20 21" fill="none" xmlns="http://www.w3.org/2000/svg">
    <g id="icons/globe">
        <path id="Vector" fill-rule="evenodd" clip-rule="evenodd"
            d="M12.4806 17.1647C14.2712 16.4979 15.7206 15.1302 16.4951 13.395C15.5991 13.556 14.6088 13.684 13.5513 13.773C13.318 15.0943 12.9477 16.2554 12.4806 17.1647ZM10 19.25C14.8325 19.25 18.75 15.3325 18.75 10.5C18.75 5.66751 14.8325 1.75 10 1.75C5.16751 1.75 1.25 5.66751 1.25 10.5C1.25 15.3325 5.16751 19.25 10 19.25ZM10.5288 17.59C10.3542 17.6028 10.1779 17.6094 10 17.6094C9.82213 17.6094 9.6458 17.6028 9.47122 17.59C9.46756 17.5865 9.46389 17.583 9.4602 17.5794C9.17039 17.2993 8.84695 16.8278 8.54566 16.1392C8.26743 15.5032 8.03102 14.7343 7.85735 13.8663C8.55193 13.9002 9.26833 13.918 10 13.918C10.7317 13.918 11.4481 13.9002 12.1426 13.8663C11.969 14.7343 11.7326 15.5032 11.4543 16.1392C11.1531 16.8278 10.8296 17.2993 10.5398 17.5794C10.5361 17.583 10.5324 17.5865 10.5288 17.59ZM13.7392 12.3839C14.9369 12.2729 16.0283 12.1105 16.9698 11.9088C17.0614 11.4534 17.1094 10.9823 17.1094 10.5C17.1094 10.0177 17.0614 9.54656 16.9698 9.09118C16.0283 8.88951 14.9369 8.72708 13.7392 8.61605C13.7974 9.22285 13.8281 9.85323 13.8281 10.5C13.8281 11.1468 13.7974 11.7771 13.7392 12.3839ZM12.3543 8.51376C12.4234 9.14355 12.4609 9.8088 12.4609 10.5C12.4609 11.1912 12.4234 11.8564 12.3543 12.4862C11.5982 12.5284 10.8104 12.5508 10 12.5508C9.18963 12.5508 8.40178 12.5284 7.64569 12.4862C7.57658 11.8564 7.53906 11.1912 7.53906 10.5C7.53906 9.8088 7.57658 9.14355 7.64569 8.51376C8.40178 8.47159 9.18963 8.44922 10 8.44922C10.8104 8.44922 11.5982 8.47159 12.3543 8.51376ZM13.5513 7.22693C14.6088 7.316 15.599 7.44399 16.4951 7.60491C15.7206 5.86983 14.2712 4.50212 12.4806 3.83537C12.9477 4.74456 13.318 5.90574 13.5513 7.22693ZM10.5288 3.41C10.5324 3.41347 10.5361 3.417 10.5398 3.42056C10.8296 3.70074 11.1531 4.17218 11.4543 4.86081C11.7326 5.49677 11.969 6.26561 12.1426 7.13365C11.4481 7.09973 10.7317 7.08203 10 7.08203C9.26833 7.08203 8.55193 7.09973 7.85735 7.13365C8.03101 6.26561 8.26743 5.49677 8.54566 4.86081C8.84695 4.17218 9.17039 3.70074 9.4602 3.42056C9.46389 3.417 9.46755 3.41347 9.4712 3.41C9.64579 3.39715 9.82213 3.39062 10 3.39062C10.1779 3.39062 10.3542 3.39715 10.5288 3.41ZM7.5194 3.83538C5.7288 4.50212 4.27941 5.86983 3.50486 7.60491C4.40093 7.44399 5.39112 7.316 6.44869 7.22693C6.68199 5.90574 7.05231 4.74456 7.5194 3.83538ZM6.26083 8.61605C5.06317 8.72708 3.97165 8.88951 3.0302 9.09118C2.93866 9.54656 2.89062 10.0177 2.89062 10.5C2.89062 10.9823 2.93866 11.4534 3.0302 11.9088C3.97165 12.1105 5.06317 12.2729 6.26083 12.3839C6.20258 11.7771 6.17188 11.1468 6.17188 10.5C6.17188 9.85323 6.20258 9.22285 6.26083 8.61605ZM6.44869 13.773C5.39112 13.684 4.40093 13.556 3.50486 13.395C4.27941 15.1302 5.7288 16.4979 7.5194 17.1647C7.05231 16.2554 6.68199 15.0943 6.44869 13.773Z"
            fill="white" />
    </g>
</svg>
    