<svg width="21" height="21" viewBox="0 0 21 21" fill="none" xmlns="http://www.w3.org/2000/svg">
<path d="M11.0012 19.9991C12.9962 19.999 14.9346 19.3363 16.5122 18.1152C18.0898 16.894 19.2171 15.1834 19.7172 13.2521M11.0012 19.9991C9.00617 19.999 7.06771 19.3363 5.49014 18.1152C3.91257 16.894 2.78525 15.1834 2.28517 13.2521M11.0012 19.9991C13.4862 19.9991 15.5012 15.9691 15.5012 10.9991C15.5012 6.02913 13.4862 1.99913 11.0012 1.99913M19.7172 13.2521C19.9022 12.5321 20.0012 11.7771 20.0012 10.9991C20.0036 9.45125 19.605 7.92912 18.8442 6.58113M19.7172 13.2521C17.0503 14.7305 14.0504 15.5039 11.0012 15.4991C7.83917 15.4991 4.86817 14.6841 2.28517 13.2521M2.28517 13.2521C2.09591 12.5161 2.00049 11.7591 2.00117 10.9991M11.0012 1.99913C12.5974 1.99847 14.1651 2.42249 15.5434 3.2277C16.9216 4.0329 18.0609 5.1903 18.8442 6.58113M11.0012 1.99913C9.40493 1.99847 7.83725 2.42249 6.45898 3.2277M18.8442 6.58113C16.6668 8.46706 13.2931 9.63482 9.56899 9.63482M6.45898 3.2277L8.12557 1.16016M6.45898 3.2277L9.56899 3.34278M9.56899 9.63482L11.6036 8.12085M9.56899 9.63482L11.6036 10.9129M2.00117 10.9991L0.90625 14.4522M2.00117 10.9991L3.50098 13.499" stroke="white" stroke-width="1.5" stroke-linecap="round" stroke-linejoin="round"/>
</svg>
