<svg xmlns="http://www.w3.org/2000/svg" width="20" height="20" viewBox="0 0 533.5 544.3">
    <path fill="#4285F4"
        d="M533.5 278.4c0-17.4-1.5-34.3-4.3-50.6H272v95.7h147.2c-6.4 34.8-25.6 64.3-54.6 84.1v69.8h88.4c51.8-47.8 80.5-118.3 80.5-199z" />
    <path fill="#34A853"
        d="M272 544.3c73.8 0 135.7-24.5 180.9-66.4l-88.4-69.8c-24.6 16.5-56 26.3-92.5 26.3-71 0-131-47.9-152.4-112.1H28.4v70.8C73.1 475.3 166.2 544.3 272 544.3z" />
    <path fill="#FBBC05"
        d="M119.6 322.3c-10.5-31.3-10.5-64.9 0-96.2V155.3H28.4C-9.5 229.2-9.5 315.1 28.4 389z" />
    <path fill="#EA4335"
        d="M272 107.2c39.9 0 75.9 13.7 104.3 40.7l78.1-78.1C407.6 24.5 345.7 0 272 0 166.2 0 73.1 69 28.4 155.3l91.2 70.8C141 155.1 201 107.2 272 107.2z" />
</svg>
  