<svg xmlns="http://www.w3.org/2000/svg" width="46" height="46" viewBox="0 0 48 48">
    <path fill="#FFC107"
        d="M43.611 20.083H42V20H24v8h11.303C33.373 32.962 29.064 36 24 36c-6.627 0-12-5.373-12-12s5.373-12 12-12c3.059 0 5.84 1.146 7.951 3.009l6.006-6.006C34.119 6.163 29.318 4 24 4 12.954 4 4 12.954 4 24s8.954 20 20 20c11.046 0 20-8.954 20-20 0-1.341-.138-2.651-.389-3.917z" />
    <path fill="#FF3D00"
        d="M6.306 14.691l6.571 4.819C14.396 15.611 18.858 12 24 12c3.059 0 5.84 1.146 7.951 3.009l6.006-6.006C34.119 6.163 29.318 4 24 4c-7.33 0-13.69 3.667-17.694 9.392z" />
    <path fill="#4CAF50"
        d="M24 44c5.064 0 9.748-1.944 13.293-5.106l-6.132-5.171C29.327 35.742 26.779 36 24 36c-5.045 0-9.346-3.024-11.27-7.356l-6.53 5.034C10.243 40.358 16.677 44 24 44z" />
    <path fill="#1976D2"
        d="M43.611 20.083H42V20H24v8h11.303C34.711 31.659 29.601 36 24 36c-5.045 0-9.346-3.024-11.27-7.356l-6.53 5.034C10.243 40.358 16.677 44 24 44c11.046 0 20-8.954 20-20 0-1.341-.138-2.651-.389-3.917z" />
</svg>