<svg width="24" height="24" viewBox="0 0 24 24" fill="none" xmlns="http://www.w3.org/2000/svg">
    <g id="icons/server">
        <path id="Vector"
            d="M7.00125 5.84541C6.65425 5.84541 6.359 5.97113 6.1155 6.22256C5.87183 6.47399 5.75 6.77926 5.75 7.13837C5.75 7.49766 5.87142 7.80336 6.11425 8.05548C6.35708 8.30778 6.65192 8.43392 6.99875 8.43392C7.34575 8.43392 7.641 8.30821 7.8845 8.05678C8.12817 7.80535 8.25 7.49999 8.25 7.1407C8.25 6.78159 8.12858 6.47589 7.88575 6.22359C7.64292 5.97147 7.34808 5.84541 7.00125 5.84541ZM7.00125 15.5622C6.65425 15.5622 6.359 15.6879 6.1155 15.9393C5.87183 16.1907 5.75 16.4961 5.75 16.8554C5.75 17.2145 5.87142 17.5202 6.11425 17.7725C6.35708 18.0246 6.65192 18.1507 6.99875 18.1507C7.34575 18.1507 7.641 18.025 7.8845 17.7735C8.12817 17.5221 8.25 17.2168 8.25 16.8577C8.25 16.4984 8.12858 16.1927 7.88575 15.9406C7.64292 15.6883 7.34808 15.5622 7.00125 15.5622ZM3.88475 2.99805H20.1152C20.3659 2.99805 20.5761 3.08563 20.7458 3.26078C20.9153 3.43577 21 3.65268 21 3.91153V10.3054C21 10.5857 20.9153 10.8184 20.7458 11.0035C20.5761 11.1887 20.3659 11.2813 20.1152 11.2813H3.88475C3.63408 11.2813 3.42392 11.1887 3.25425 11.0035C3.08475 10.8184 3 10.5857 3 10.3054V3.91153C3 3.65268 3.08475 3.43577 3.25425 3.26078C3.42392 3.08563 3.63408 2.99805 3.88475 2.99805ZM4.5 4.55115V9.72818H19.5V4.55115H4.5ZM3.88475 12.7148H20.096C20.3602 12.7148 20.5768 12.8064 20.746 12.9897C20.9153 13.1728 21 13.3998 21 13.6707V20.0025C21 20.2959 20.9153 20.5351 20.746 20.7203C20.5768 20.9055 20.3602 20.998 20.096 20.998H3.904C3.63983 20.998 3.42317 20.9055 3.254 20.7203C3.08467 20.5351 3 20.2959 3 20.0025V13.6707C3 13.3998 3.08142 13.1728 3.24425 12.9897C3.40708 12.8064 3.62058 12.7148 3.88475 12.7148ZM4.5 14.2679V19.4449H19.5V14.2679H4.5Z"
            fill="white" />
    </g>
</svg>
    