<svg width="41" height="27" viewBox="0 0 41 27" fill="none" xmlns="http://www.w3.org/2000/svg">
    <path
        d="M4.10118 11.4346C4.10118 11.4346 7.73047 6.07984 14.977 5.52586V3.58317C6.95055 4.22778 0 11.0258 0 11.0258C0 11.0258 3.93668 22.406 14.977 23.448V21.383C6.87507 20.3638 4.10118 11.4346 4.10118 11.4346ZM14.977 17.2764V19.1675C8.85373 18.0758 7.15408 11.7107 7.15408 11.7107C7.15408 11.7107 10.0941 8.45378 14.977 7.92561V10.0007C14.9732 10.0007 14.9707 9.99958 14.9676 9.99958C12.4048 9.69203 10.4028 12.0861 10.4028 12.0861C10.4028 12.0861 11.5249 16.1165 14.977 17.2764ZM14.977 0V3.58317C15.2126 3.5651 15.4482 3.54978 15.6851 3.54172C24.8103 3.23417 30.7559 11.0258 30.7559 11.0258C30.7559 11.0258 23.9271 19.3294 16.8127 19.3294C16.1607 19.3294 15.5503 19.2689 14.977 19.1673V21.383C15.4672 21.4453 15.9756 21.4819 16.506 21.4819C23.1264 21.4819 27.9141 18.1008 32.5501 14.0991C33.3187 14.7147 36.4655 16.2123 37.1123 16.8679C32.7044 20.5583 22.4315 23.5331 16.6074 23.5331C16.046 23.5331 15.5069 23.4991 14.977 23.448V26.5615H40.1407V0H14.977ZM14.977 7.92561V5.52586C15.2102 5.50957 15.4451 5.49716 15.6851 5.48958C22.247 5.28347 26.552 11.1285 26.552 11.1285C26.552 11.1285 21.9022 17.5864 16.9166 17.5864C16.1991 17.5864 15.5559 17.471 14.977 17.2764V10.0007C17.5315 10.3094 18.0455 11.4378 19.5813 13.998L22.9971 11.1178C22.9971 11.1178 20.5036 7.84771 16.3004 7.84771C15.8435 7.84755 15.4063 7.87964 14.977 7.92561Z"
        fill="#84C809" />
</svg>
    