<svg width="24" height="24" viewBox="0 0 24 24" fill="none" xmlns="http://www.w3.org/2000/svg">
    <g id="icons/providers">
        <path id="Vector"
            d="M2.50011 18.4788L2.50008 16.7508H12.2788L12.2789 18.4788H2.50011ZM2.50008 14.0075L2.50015 12.2476H7.2309L7.23083 14.0075H2.50008ZM2.50011 9.37299L2.50008 7.56567H7.98083L7.98087 9.37299H2.50011ZM20.4464 18.498L16.5771 14.6575C16.1963 14.9345 15.7812 15.1455 15.3319 15.2903C14.8825 15.4351 14.4258 15.5075 13.9616 15.5075C12.7086 15.5075 11.6406 15.0698 10.7576 14.1943C9.87445 13.3186 9.43287 12.2548 9.43287 11.0028C9.43287 9.75096 9.87462 8.68721 10.7581 7.81155C11.6418 6.93588 12.7104 6.49805 13.9639 6.49805C15.2175 6.49805 16.2854 6.93588 17.1674 7.81155C18.0494 8.68721 18.4904 9.74938 18.4904 10.998C18.4904 11.4622 18.4179 11.919 18.2731 12.3683C18.1283 12.8176 17.9142 13.2295 17.6309 13.6038L21.5001 17.4443L20.4464 18.498ZM13.9616 14.0075C14.8029 14.0075 15.5181 13.7159 16.1071 13.1325C16.6961 12.5492 16.9906 11.8393 16.9906 11.0028C16.9906 10.1663 16.6961 9.45638 16.1071 8.87305C15.5181 8.28971 14.8029 7.99805 13.9616 7.99805C13.1203 7.99805 12.4051 8.28971 11.8161 8.87305C11.2273 9.45638 10.9329 10.1663 10.9329 11.0028C10.9329 11.8393 11.2273 12.5492 11.8161 13.1325C12.4051 13.7159 13.1203 14.0075 13.9616 14.0075Z"
            fill="white" />
    </g>
</svg>
    