<svg width="22" height="22" viewBox="0 0 22 22" fill="none" xmlns="http://www.w3.org/2000/svg">
<path d="M20.2889 22L12.5889 14.3C11.9778 14.7889 11.275 15.1759 10.4806 15.4611C9.68611 15.7463 8.84074 15.8889 7.94444 15.8889C5.72407 15.8889 3.84491 15.1199 2.30694 13.5819C0.768982 12.044 0 10.1648 0 7.94444C0 5.72407 0.768982 3.84491 2.30694 2.30694C3.84491 0.768982 5.72407 0 7.94444 0C10.1648 0 12.044 0.768982 13.5819 2.30694C15.1199 3.84491 15.8889 5.72407 15.8889 7.94444C15.8889 8.84074 15.7463 9.68611 15.4611 10.4806C15.1759 11.275 14.7889 11.9778 14.3 12.5889L22 20.2889L20.2889 22ZM7.94444 13.4444C9.47222 13.4444 10.7708 12.9097 11.8403 11.8403C12.9097 10.7708 13.4444 9.47222 13.4444 7.94444C13.4444 6.41667 12.9097 5.11806 11.8403 4.04861C10.7708 2.97917 9.47222 2.44444 7.94444 2.44444C6.41667 2.44444 5.11806 2.97917 4.04861 4.04861C2.97917 5.11806 2.44444 6.41667 2.44444 7.94444C2.44444 9.47222 2.97917 10.7708 4.04861 11.8403C5.11806 12.9097 6.41667 13.4444 7.94444 13.4444Z" fill="#1FEFEE"/>
</svg>
