<svg width="14" height="15" viewBox="0 0 14 15" fill="none" xmlns="http://www.w3.org/2000/svg">
<path d="M4.88373 9.31821V5.08566H9.11627V9.31821H4.88373ZM6.15349 8.04844H7.84651V6.35543H6.15349V8.04844ZM4.6721 14.2019V12.7042H3.02797C2.60034 12.7042 2.23838 12.5561 1.9421 12.2598C1.64583 11.9636 1.49769 11.6016 1.49769 11.174V9.52984H0V8.26007H1.49769V6.1438H0V4.87403H1.49769V3.2299C1.49769 2.80227 1.64583 2.44032 1.9421 2.14404C2.23838 1.84776 2.60034 1.69962 3.02797 1.69962H4.6721V0.201935H5.94186V1.69962H8.05814V0.201935H9.3279V1.69962H10.972C11.3997 1.69962 11.7616 1.84776 12.0579 2.14404C12.3542 2.44032 12.5023 2.80227 12.5023 3.2299V4.87403H14V6.1438H12.5023V8.26007H14V9.52984H12.5023V11.174C12.5023 11.6016 12.3542 11.9636 12.0579 12.2598C11.7616 12.5561 11.3997 12.7042 10.972 12.7042H9.3279V14.2019H8.05814V12.7042H5.94186V14.2019H4.6721ZM10.972 11.4345C11.0372 11.4345 11.0969 11.4073 11.1511 11.353C11.2054 11.2988 11.2325 11.2392 11.2325 11.174V3.2299C11.2325 3.16472 11.2054 3.10504 11.1511 3.05086C11.0969 2.99655 11.0372 2.96939 10.972 2.96939H3.02797C2.96278 2.96939 2.90311 2.99655 2.84893 3.05086C2.79461 3.10504 2.76745 3.16472 2.76745 3.2299V11.174C2.76745 11.2392 2.79461 11.2988 2.84893 11.353C2.90311 11.4073 2.96278 11.4345 3.02797 11.4345H10.972Z" fill="#1FEFEE"/>
</svg>
