<svg width="24" height="24" viewBox="0 0 24 24" fill="none" xmlns="http://www.w3.org/2000/svg">
    <g id="icons/support-email">
        <path id="Vector"
            d="M22.4939 4.31567C22.4755 4.77146 22.4169 5.22344 22.3631 5.67542C22.1981 7.06041 22.0011 8.44073 21.793 9.81936C21.5604 11.3619 21.3176 12.9026 21.0634 14.4416C20.8363 15.8168 20.6036 17.1908 20.3605 18.563C20.2699 19.074 20.1821 19.5853 19.9712 20.0628C19.8668 20.299 19.7381 20.5179 19.5563 20.7005C19.3541 20.9035 19.109 20.9947 18.8322 20.9979C18.3312 21.0038 17.8831 20.825 17.4583 20.5669C17.0157 20.298 16.612 19.9701 16.1863 19.6761C15.1949 18.9917 14.2051 18.3051 13.2191 17.6124C12.6371 17.2035 12.0516 16.8001 11.4686 16.3927C11.2386 16.2319 11.0235 16.052 10.849 15.8259C10.5323 15.4155 10.5239 15.0206 10.8189 14.5926C11.0325 14.2825 11.3009 14.0254 11.5618 13.7607C12.8521 12.4517 14.2006 11.2063 15.5003 9.90759C16.0065 9.40195 16.5157 8.89928 16.9956 8.3665C17.0934 8.25812 17.1844 8.14316 17.2762 8.02926C17.3775 7.90349 17.3652 7.76499 17.2984 7.63201C17.2336 7.50327 17.1135 7.49139 16.9876 7.50008C16.864 7.50857 16.759 7.56223 16.6559 7.62798C15.7164 8.22651 14.8025 8.86556 13.8833 9.49591C12.0957 10.722 10.3224 11.9698 8.54074 13.2051C8.04566 13.5482 7.51306 13.8074 6.91262 13.8859C6.56514 13.9313 6.22504 13.8717 5.88536 13.8053C5.08524 13.6488 4.3089 13.4025 3.53522 13.145C3.09672 12.9991 2.65269 12.8697 2.22588 12.6884C2.06126 12.6184 1.90054 12.5401 1.76032 12.4245C1.43232 12.1537 1.41305 11.7793 1.70948 11.4733C1.94585 11.2292 2.23449 11.0673 2.53502 10.9303C3.43785 10.5191 4.34354 10.1142 5.24842 9.70801C6.4446 9.17119 7.64078 8.63374 8.83819 8.09968C10.5623 7.33062 12.2851 6.5588 14.0175 5.81031C15.5325 5.15578 17.0495 4.50613 18.577 3.88341C19.2723 3.59984 19.97 3.32221 20.6928 3.11944C20.881 3.06663 21.0716 3.02803 21.2656 3.00682C21.4796 2.98328 21.6877 3.00746 21.8921 3.07533C22.2816 3.20449 22.4591 3.59886 22.494 3.99145C22.506 4.12868 22.4968 4.17802 22.4935 4.31652L22.4939 4.31567Z"
            fill="#FEFEFE" />
    </g>
</svg>
    