<svg width="24" height="24" viewBox="0 0 24 24" fill="none" xmlns="http://www.w3.org/2000/svg">
  <circle cx="12" cy="12" r="12" fill="#26A17B"/>
  <path d="M12 4.5V17.25" stroke="white" stroke-width="1.5" stroke-linecap="round" stroke-linejoin="round"/>
  <path d="M16.5 8.25H9.75C9.15326 8.25 8.58097 8.48705 8.15901 8.90901C7.73705 9.33097 7.5 9.90326 7.5 10.5C7.5 11.0967 7.73705 11.669 8.15901 12.091C8.58097 12.5129 9.15326 12.75 9.75 12.75H14.25C14.8467 12.75 15.419 12.9871 15.841 13.409C16.2629 13.831 16.5 14.4033 16.5 15C16.5 15.5967 16.2629 16.169 15.841 16.591C15.419 17.0129 14.8467 17.25 14.25 17.25H7.5" stroke="white" stroke-width="1.5" stroke-linecap="round" stroke-linejoin="round"/>
</svg>

