<svg width="13" height="14" viewBox="0 0 13 14" fill="none" xmlns="http://www.w3.org/2000/svg">
<path d="M4.32694 9.02469V5.27469H8.07694V9.02469H4.32694ZM5.45194 7.89969H6.95194V6.39969H5.45194V7.89969ZM4.13944 13.3516V12.0247H2.68275C2.30388 12.0247 1.98319 11.8934 1.72069 11.6309C1.45819 11.3684 1.32694 11.0478 1.32694 10.6689V9.21219H0V8.08719H1.32694V6.21219H0V5.08719H1.32694V3.6305C1.32694 3.25163 1.45819 2.93094 1.72069 2.66844C1.98319 2.40594 2.30388 2.27469 2.68275 2.27469H4.13944V0.947754H5.26444V2.27469H7.13944V0.947754H8.26444V2.27469H9.72113C10.1 2.27469 10.4207 2.40594 10.6832 2.66844C10.9457 2.93094 11.0769 3.25163 11.0769 3.6305V5.08719H12.4039V6.21219H11.0769V8.08719H12.4039V9.21219H11.0769V10.6689C11.0769 11.0478 10.9457 11.3684 10.6832 11.6309C10.4207 11.8934 10.1 12.0247 9.72113 12.0247H8.26444V13.3516H7.13944V12.0247H5.26444V13.3516H4.13944ZM9.72113 10.8997C9.77888 10.8997 9.83175 10.8756 9.87975 10.8275C9.92788 10.7795 9.95194 10.7266 9.95194 10.6689V3.6305C9.95194 3.57275 9.92788 3.51988 9.87975 3.47188C9.83175 3.42375 9.77888 3.39969 9.72113 3.39969H2.68275C2.625 3.39969 2.57213 3.42375 2.52413 3.47188C2.476 3.51988 2.45194 3.57275 2.45194 3.6305V10.6689C2.45194 10.7266 2.476 10.7795 2.52413 10.8275C2.57213 10.8756 2.625 10.8997 2.68275 10.8997H9.72113Z" fill="#1FEFEE"/>
</svg>
